<svg width="115" height="189" viewBox="0 0 115 189" fill="none"
    xmlns="http://www.w3.org/2000/svg">
    <circle cx="97.6731" cy="125.185" r="11.1374" transform="rotate(-180 97.6731 125.185)" fill="#EEF1F6"/>
    <circle cx="97.673" cy="125.185" r="15.4834" transform="rotate(-180 97.673 125.185)" stroke="#EEF1F6" stroke-width="2"/>
    <circle cx="41.9858" cy="14.2559" r="8.90995" transform="rotate(-180 41.9858 14.2559)" fill="#EEF1F6"/>
    <circle cx="41.9858" cy="14.2559" r="13.2559" transform="rotate(-180 41.9858 14.2559)" stroke="#EEF1F6" stroke-width="2"/>
    <circle cx="35.7486" cy="155.924" r="6.23697" transform="rotate(-180 35.7486 155.924)" fill="#EEF1F6"/>
    <circle cx="35.7487" cy="155.924" r="9.69194" transform="rotate(-180 35.7487 155.924)" stroke="#EEF1F6" stroke-width="2"/>
    <line x1="84.1469" y1="116.624" x2="50.289" y2="90.7855" stroke="#EEF1F6" stroke-width="2"/>
    <line x1="25.8766" y1="81.187" x2="0.928762" y2="79.405" stroke="#EEF1F6" stroke-width="2"/>
    <line x1="83.427" y1="132.758" x2="45.1142" y2="152.359" stroke="#EEF1F6" stroke-width="2"/>
    <line x1="52.7025" y1="188.5" x2="39.3376" y2="165.334" stroke="#EEF1F6" stroke-width="2"/>
    <line x1="41.2027" y1="28.5562" x2="39.4208" y2="68.651" stroke="#EEF1F6" stroke-width="2" stroke-dasharray="5 3"/>
    <line x1="51.8236" y1="26.3568" x2="86.5724" y2="112.783" stroke="#EEF1F6" stroke-width="2" stroke-dasharray="5 3"/>
    <line x1="1.7194" y1="124.936" x2="26.6673" y2="150.775" stroke="#EEF1F6" stroke-width="2" stroke-dasharray="5 3"/>
    <circle cx="39.3127" cy="82.8626" r="8.90995" transform="rotate(-180 39.3127 82.8626)" fill="#018BFF"/>
    <circle cx="39.3128" cy="82.8625" r="13.2559" transform="rotate(-180 39.3128 82.8625)" stroke="#018BFF" stroke-width="2"/>
</svg>
