<?xml version="1.0" encoding="UTF-8"?><svg xmlns="http://www.w3.org/2000/svg" xmlns:xlink="http://www.w3.org/1999/xlink" version="1.1" viewBox="0 0 24 24">
    <!--Generated by IJSVG (https://github.com/curthard89/IJSVG)-->
    <g stroke="#000" fill="none">
        <path d="M10.52,0c2.439,1.764 3.982,3.712 3.982,3.712c0,0 -5.148,6.5 -11.5,6.5c-1.039,0 -2.045,-0.173 -3.002,-0.464" transform="translate(8.998, 8.288)"/>
        <path d="M3.968,10.201c-2.431,-1.761 -3.968,-3.701 -3.968,-3.701c0,0 5.148,-6.5 11.5,-6.5c0.859,0 1.698,0.119 2.504,0.325" transform="translate(0.5, 5.5)"/>
        <path d="M0,4c0,-2.21 1.791,-4 4,-4" transform="translate(8, 8)"/>
        <path d="M4,0c0,2.21 -1.791,4 -4,4" transform="translate(12, 12)"/>
        <path d="M19.5,0l-19.5,19.5" transform="translate(2.25, 2.25)"/>
    </g>
</svg>